<svg viewBox="0 0 200 200" xmlns="http://www.w3.org/2000/svg">
  <path fill="#58CC02" d="M49.3,-46.6C64.6,-32.9,78.2,-16.4,79.8,1.4C81.4,19.2,71,38.5,55.9,52.3C40.8,66.1,20.4,74.5,-1.9,76C-24.2,77.5,-48.4,72,-61.7,57.5C-75,43,-77.4,19.5,-73.2,0.3C-69,-18.9,-58.3,-33.8,-45.1,-46.8C-31.9,-59.8,-16,-70.8,-0.3,-70.6C15.3,-70.4,34,-59.3,49.3,-46.6Z" transform="translate(100 100)" />
  <!-- Book -->
  <path d="M 90 120 L 150 110 L 155 150 L 95 160 Z" fill="#FFFFFF" stroke="#4B4B4B" stroke-width="2"/>
  <path d="M 90 120 L 30 110 L 25 150 L 85 160 Z" fill="#FFFFFF" stroke="#4B4B4B" stroke-width="2"/>
  <rect x="87" y="110" width="6" height="52" fill="#4B4B4B" />
  <!-- Eyes -->
  <circle cx="80" cy="80" r="10" fill="white" stroke="black" stroke-width="2"/>
  <circle cx="120" cy="80" r="10" fill="white" stroke="black" stroke-width="2"/>
  <circle cx="82" cy="82" r="3" fill="black"/>
  <circle cx="118" cy="82" r="3" fill="black"/>
  <!-- Smile -->
  <path d="M 90 100 Q 100 110 110 100" stroke="black" stroke-width="2" fill="none" />
</svg>